<?xml version="1.0" encoding="UTF-8"?>
<svg width="235px" height="343px" viewBox="0 0 235 343" version="1.1" xmlns="http://www.w3.org/2000/svg" xmlns:xlink="http://www.w3.org/1999/xlink">
    <!-- Generator: Sketch 53.2 (72643) - https://sketchapp.com -->
    <title>Combined Shape</title>
    <desc>Created with Sketch.</desc>
    <defs>
        <path d="M373.958386,275.402343 L373.918367,275.362325 L373.958386,275.402343 L374,275.361654 L373.958386,275.402343 Z M373.958386,275.402343 L417.637675,319.081633 L373.958386,275.402343 L329.812073,318.567627 L373.958386,275.402343 Z M373.5,215.850543 L373.5,191 L373.5,215.850543 L374,215.361654 L373.5,215.850543 Z M373.5,215.850543 L373.5,275.4406 L373.5,215.850543 L329.812073,258.567627 L373.5,215.850543 Z M195,419.5 L195,87.6210938 L195,419.5 Z M195,87.6210938 L398.044922,87.6210938 L195,87.6210938 Z M196.5,151.5 L257.5,89.5 L196.5,151.5 Z M374,87.6210938 L374,137.767578 L374,87.6210938 Z M374,191 C359.640597,191 348,179.135546 348,164.5 C348,149.864454 359.640597,138 374,138 C388.359403,138 400,149.864454 400,164.5 C400,179.135546 388.359403,191 374,191 Z M373.918367,214.362325 L417.637675,258.081633 L373.918367,214.362325 Z" id="path-1"></path>
        <filter x="-3.8%" y="-2.1%" width="107.5%" height="104.6%" filterUnits="objectBoundingBox" id="filter-2">
            <feMorphology radius="2.5" operator="dilate" in="SourceAlpha" result="shadowSpreadOuter1"></feMorphology>
            <feOffset dx="0" dy="2" in="shadowSpreadOuter1" result="shadowOffsetOuter1"></feOffset>
            <feMorphology radius="2.5" operator="erode" in="SourceAlpha" result="shadowInner"></feMorphology>
            <feOffset dx="0" dy="2" in="shadowInner" result="shadowInner"></feOffset>
            <feComposite in="shadowOffsetOuter1" in2="shadowInner" operator="out" result="shadowOffsetOuter1"></feComposite>
            <feGaussianBlur stdDeviation="2" in="shadowOffsetOuter1" result="shadowBlurOuter1"></feGaussianBlur>
            <feColorMatrix values="0 0 0 0 0   0 0 0 0 0   0 0 0 0 0  0 0 0 0.5 0" type="matrix" in="shadowBlurOuter1"></feColorMatrix>
        </filter>
    </defs>
    <g id="Page-1" stroke="none" stroke-width="1" fill="none" fill-rule="evenodd" stroke-linecap="square">
        <g id="Tablet" transform="translate(-188.000000, -83.000000)">
            <g id="Combined-Shape">
                <use fill="black" fill-opacity="1" filter="url(#filter-2)" xlink:href="#path-1"></use>
                <use stroke="#000000" stroke-width="5" xlink:href="#path-1"></use>
            </g>
        </g>
    </g>
</svg>