<?xml version="1.0" encoding="UTF-8"?>
<svg width="128px" height="128px" viewBox="0 0 128 128" version="1.1" xmlns="http://www.w3.org/2000/svg" xmlns:xlink="http://www.w3.org/1999/xlink">
    <!-- Generator: Sketch 53.2 (72643) - https://sketchapp.com -->
    <title>Laugh</title>
    <desc>Created with Sketch.</desc>
    <g id="Page-1" stroke="none" stroke-width="1" fill="none" fill-rule="evenodd">
        <g id="De-Moji" transform="translate(-1081.000000, -456.000000)" fill="#FFFFFF" fill-rule="nonzero">
            <g id="Stacked-Group-2" transform="translate(757.000000, 456.000000)">
                <g id="Laugh" transform="translate(324.000000, 0.000000)">
                    <path d="M64,3 C97.6893697,3 125,30.3106303 125,64 C125,97.6893697 97.6893697,125 64,125 C30.3106303,125 3,97.6893697 3,64 C3.03307483,30.3243398 30.3243398,3.03307483 64,3 L64,3 Z M64,6.21724894e-15 C28.653776,-2.164332e-15 4.32866401e-15,28.653776 0,64 C-4.32866401e-15,99.346224 28.653776,128 64,128 C99.346224,128 128,99.346224 128,64 C128,47.0261447 121.257162,30.7474942 109.254834,18.745166 C97.2525058,6.74283778 80.9738553,1.03934888e-15 64,6.21724894e-15 Z" id="Shape"></path>
                    <path d="M51.13,59.24 C50.5787886,59.2373352 50.0728259,58.9345242 49.81,58.45 C48.6983821,56.3711007 46.5324386,55.0731172 44.175,55.0731172 C41.8175614,55.0731172 39.6516179,56.3711007 38.54,58.45 C38.1395936,59.1817773 37.2217773,59.4504064 36.49,59.05 C35.7582227,58.6495936 35.4895936,57.7317773 35.89,57 C37.523683,53.9456531 40.7061936,52.0387357 44.17,52.0387357 C47.6338064,52.0387357 50.816317,53.9456531 52.45,57 C52.8213849,57.7218945 52.5510473,58.6082473 51.84,59 C51.6268901,59.1376245 51.3829037,59.2200988 51.13,59.24 L51.13,59.24 Z" id="Path"></path>
                    <path d="M79,59.24 C78.4570921,59.2574884 77.9466267,58.982029 77.6632131,58.5186375 C77.3797996,58.055246 77.3671168,57.4753392 77.63,57 C79.263683,53.9456531 82.4461936,52.0387357 85.91,52.0387357 C89.3738064,52.0387357 92.556317,53.9456531 94.19,57 C94.4694465,57.4737397 94.4672043,58.0624263 94.1841572,58.5340236 C93.9011101,59.0056208 93.3826588,59.2844848 92.8331555,59.2606987 C92.2836522,59.2369126 91.7912371,58.9142917 91.55,58.42 C90.4383821,56.3411007 88.2724386,55.0431172 85.915,55.0431172 C83.5575614,55.0431172 81.3916179,56.3411007 80.28,58.42 C80.0320595,58.9038275 79.5431717,59.2170213 79,59.24 L79,59.24 Z" id="Path"></path>
                    <path d="M64,103.07 C57.67,103.07 52.25,99 51.39,93.61 C51.385588,93.5333968 51.385588,93.4566032 51.39,93.38 L51.39,75.83 C51.39,75.0015729 52.0615729,74.33 52.89,74.33 L75.13,74.33 C75.9584271,74.33 76.63,75.0015729 76.63,75.83 L76.63,93.38 C76.634412,93.4566032 76.634412,93.5333968 76.63,93.61 C75.75,99 70.33,103.07 64,103.07 Z M54.37,93.25 C55.06,97.14 59.17,100.07 64,100.07 C68.83,100.07 72.94,97.14 73.63,93.25 L73.63,77.33 L54.37,77.33 L54.37,93.25 Z" id="Shape"></path>
                </g>
            </g>
        </g>
    </g>
</svg>