<?xml version="1.0" encoding="UTF-8"?>
<svg width="128px" height="128px" viewBox="0 0 128 128" version="1.1" xmlns="http://www.w3.org/2000/svg" xmlns:xlink="http://www.w3.org/1999/xlink">
    <!-- Generator: Sketch 53.2 (72643) - https://sketchapp.com -->
    <title>sick</title>
    <desc>Created with Sketch.</desc>
    <g id="Page-1" stroke="none" stroke-width="1" fill="none" fill-rule="evenodd">
        <g id="De-Moji" transform="translate(-1081.000000, -297.000000)" fill="#FFFFFF" fill-rule="nonzero">
            <g id="Stacked-Group" transform="translate(757.000000, 297.000000)">
                <g id="sick" transform="translate(324.000000, 0.000000)">
                    <path d="M64,3 C97.6893697,3 125,30.3106303 125,64 C125,97.6893697 97.6893697,125 64,125 C30.3106303,125 3,97.6893697 3,64 C3.03307483,30.3243398 30.3243398,3.03307483 64,3 L64,3 Z M64,6.21724894e-15 C28.653776,-2.164332e-15 4.32866401e-15,28.653776 0,64 C-4.32866401e-15,99.346224 28.653776,128 64,128 C99.346224,128 128,99.346224 128,64 C128,47.0261447 121.257162,30.7474942 109.254834,18.745166 C97.2525058,6.74283778 80.9738553,1.03934888e-15 64,6.21724894e-15 Z" id="Shape"></path>
                    <path d="M46.24,50.72 C45.9147263,50.4890207 45.5104117,50.3981284 45.1175785,50.4676731 C44.7247452,50.5372177 44.3762077,50.76139 44.15,51.09 L42.78,53 L41.42,51.05 C41.1230278,50.5734076 40.5847285,50.3026036 40.0250404,50.3482329 C39.4653523,50.3938623 38.9780253,50.7482819 38.7621713,51.2666832 C38.5463173,51.7850844 38.6380927,52.3806331 39,52.81 L41,55.65 L39,58.5 C38.7722136,58.8245584 38.6831884,59.2265241 38.7526323,59.6169116 C38.8220762,60.007299 39.0442609,60.3539052 39.37,60.58 C39.6194822,60.7626366 39.9208124,60.8607441 40.23,60.86 C40.7190894,60.8569833 41.1768469,60.6188005 41.46,60.22 L42.82,58.27 L44.19,60.22 C44.4177574,60.5470202 44.7670246,60.7691744 45.1597579,60.8368222 C45.5524912,60.9044701 45.9559566,60.8119732 46.28,60.58 C46.6063727,60.3541023 46.8283285,60.0065746 46.8960206,59.6154651 C46.9637126,59.2243556 46.8714669,58.8224468 46.64,58.5 L44.64,55.65 L46.64,52.81 C46.8680612,52.4810365 46.9541693,52.0741456 46.8789252,51.6809952 C46.8036811,51.2878448 46.5734139,50.9415042 46.24,50.72 L46.24,50.72 Z" id="Path"></path>
                    <path d="M87.74,55.65 L89.74,52.81 C90.2149648,52.1306898 90.0493102,51.1949649 89.37,50.7200001 C88.6906897,50.2450352 87.7549649,50.4106898 87.28,51.09 L85.91,53 L84.55,51.05 C84.2427516,50.6105633 83.7244057,50.3684221 83.1902181,50.4147887 C82.6560306,50.4611553 82.1871572,50.7889854 81.9602181,51.2747887 C81.733279,51.760592 81.7827516,52.3305633 82.09,52.77 L84.09,55.61 L82.09,58.46 C81.8622136,58.7845584 81.7731884,59.1865241 81.8426323,59.5769116 C81.9120762,59.967299 82.1342609,60.3139052 82.46,60.54 C82.7094822,60.7226366 83.0108124,60.8207441 83.32,60.82 C83.8090894,60.8169833 84.2668469,60.5788005 84.55,60.18 L85.91,58.23 L87.28,60.18 C87.5631531,60.5788005 88.0209106,60.8169833 88.51,60.82 C88.8191876,60.8207441 89.1205178,60.7226366 89.37,60.54 C89.6957391,60.3139052 89.9179238,59.967299 89.9873677,59.5769116 C90.0568116,59.1865241 89.9677864,58.7845584 89.74,58.46 L87.74,55.65 Z" id="Path"></path>
                    <path d="M86.26,87.76 L41.74,87.76 C40.9115729,87.76 40.24,87.0884271 40.24,86.26 C40.24,85.4315729 40.9115729,84.76 41.74,84.76 L86.26,84.76 C87.0884271,84.76 87.76,85.4315729 87.76,86.26 C87.76,87.0884271 87.0884271,87.76 86.26,87.76 Z" id="Path"></path>
                </g>
            </g>
        </g>
    </g>
</svg>