<?xml version="1.0" encoding="UTF-8"?>
<svg width="90px" height="66px" viewBox="0 0 90 66" version="1.1" xmlns="http://www.w3.org/2000/svg" xmlns:xlink="http://www.w3.org/1999/xlink">
    <!-- Generator: Sketch 53.2 (72643) - https://sketchapp.com -->
    <title>27</title>
    <desc>Created with Sketch.</desc>
    <g id="Page-1" stroke="none" stroke-width="1" fill="none" fill-rule="evenodd">
        <g id="170-web-icons-webperts" transform="translate(-2638.000000, -1056.000000)" fill="#FFFFFF" fill-rule="nonzero">
            <path d="M2716.762,1056 L2649.238,1056 C2643.042,1056 2638,1061.04988 2638,1067.25678 L2638,1110.74121 C2638,1116.94912 2643.042,1122 2649.238,1122 L2716.761,1122 C2722.958,1122 2728,1116.94912 2728,1110.74121 L2728,1067.25678 C2728,1061.04988 2722.958,1056 2716.762,1056 Z M2649.238,1059.1886 L2716.761,1059.1886 C2719.615,1059.1886 2722.12,1060.68724 2723.551,1062.93519 L2688.921,1095.69978 C2685.655,1098.7872 2680.345,1098.7872 2677.08,1095.69978 L2642.448,1062.93519 C2643.88,1060.68724 2646.385,1059.1886 2649.238,1059.1886 Z M2641.261,1111.80107 C2641.216,1111.45346 2641.184,1111.10185 2641.184,1110.74121 L2641.184,1067.25678 C2641.184,1066.89815 2641.215,1066.54553 2641.261,1066.19792 L2665.361,1089 L2641.261,1111.80107 Z M2716.762,1118.81039 L2649.238,1118.81039 C2646.384,1118.81039 2643.879,1117.31276 2642.448,1115.06481 L2667.68,1091.19285 L2674.896,1098.01785 C2677.129,1100.13257 2680.065,1101.19043 2683,1101.19043 C2685.935,1101.19043 2688.872,1100.13257 2691.105,1098.01785 L2698.32,1091.19285 L2723.551,1115.06381 C2722.121,1117.31276 2719.615,1118.81039 2716.762,1118.81039 Z M2724.816,1067.25678 L2724.816,1110.74121 C2724.816,1111.10285 2724.784,1111.45346 2724.739,1111.80107 L2700.639,1089 L2724.74,1066.19993 C2724.784,1066.54654 2724.816,1066.89916 2724.816,1067.25678 Z" id="27"></path>
        </g>
    </g>
</svg>