<?xml version="1.0" encoding="UTF-8"?>
<svg width="90px" height="77px" viewBox="0 0 90 77" version="1.1" xmlns="http://www.w3.org/2000/svg" xmlns:xlink="http://www.w3.org/1999/xlink">
    <!-- Generator: Sketch 53.2 (72643) - https://sketchapp.com -->
    <title>90</title>
    <desc>Created with Sketch.</desc>
    <g id="Page-1" stroke="none" stroke-width="1" fill="none" fill-rule="evenodd">
        <g id="170-web-icons-webperts" transform="translate(-1315.000000, -1341.000000)" fill="#FFFFFF" fill-rule="nonzero">
            <path d="M1383.17396,1341 C1377.22299,1341 1371.21702,1343.29064 1366.69804,1347.28482 C1362.73505,1350.78844 1360.25106,1356.67424 1360.11707,1356.99963 C1360.07707,1357.11107 1360.03807,1357.20958 1360.00107,1357.29715 C1359.95507,1357.19068 1359.90507,1357.06729 1359.85307,1356.92301 C1359.74907,1356.67424 1357.26608,1350.78844 1353.3021,1347.28482 C1348.78312,1343.29064 1342.77914,1341 1336.82717,1341 C1327.48321,1341 1319.20525,1347.2898 1316.22926,1356.65135 C1310.96429,1373.21518 1322.81223,1393.5891 1347.92312,1411.15396 C1351.3221,1413.53117 1357.27108,1417.19201 1357.52308,1417.34823 C1358.20607,1417.76915 1359.08607,1418 1359.99907,1418 C1360.91206,1418 1361.79206,1417.76915 1362.47605,1417.34823 C1362.72805,1417.193 1368.67503,1413.53117 1372.07501,1411.15396 C1397.1859,1393.5891 1409.03585,1373.21518 1403.77087,1356.65135 C1400.79588,1347.2898 1392.51792,1341 1383.17396,1341 Z M1370.24602,1408.56282 C1366.92503,1410.88729 1360.86506,1414.61778 1360.80506,1414.6546 C1360.66306,1414.74117 1360.37806,1414.83371 1360.00107,1414.83371 C1359.62407,1414.83371 1359.33807,1414.74117 1359.19707,1414.6546 C1359.13707,1414.61778 1353.0771,1410.88729 1349.75511,1408.56282 C1325.83722,1391.83381 1314.43927,1372.78432 1319.26425,1357.60562 C1321.81924,1349.5665 1328.87821,1344.1653 1336.82817,1344.1653 C1342.01215,1344.1653 1347.24512,1346.16438 1351.19011,1349.65108 C1354.59209,1352.65916 1356.88308,1358.06036 1356.88608,1358.06036 C1357.79408,1360.59777 1359.22707,1360.97689 1360.00107,1360.97689 C1360.77506,1360.97689 1362.20906,1360.59777 1363.08505,1358.13698 C1363.10805,1358.08325 1365.38904,1352.67806 1368.81203,1349.65208 C1372.75601,1346.16537 1377.99199,1344.16629 1383.17396,1344.16629 C1391.12493,1344.16629 1398.18389,1349.5675 1400.73788,1357.60661 C1405.56386,1372.78432 1394.16291,1391.83481 1370.24602,1408.56282 Z" id="90"></path>
        </g>
    </g>
</svg>