<?xml version="1.0" encoding="UTF-8"?>
<svg width="76px" height="90px" viewBox="0 0 76 90" version="1.1" xmlns="http://www.w3.org/2000/svg" xmlns:xlink="http://www.w3.org/1999/xlink">
    <!-- Generator: Sketch 53.2 (72643) - https://sketchapp.com -->
    <title>Group</title>
    <desc>Created with Sketch.</desc>
    <g id="Page-1" stroke="none" stroke-width="1" fill="none" fill-rule="evenodd">
        <g id="170-web-icons-webperts" transform="translate(-2344.000000, -99.000000)" fill="#FFFFFF" fill-rule="nonzero">
            <g id="83" transform="translate(2344.000000, 99.000000)">
                <g id="Group" transform="translate(0.961000, 0.000523)">
                    <path d="M1.515,89.9994765 L72.563,89.9994765 C73.4,89.9994765 74.079,89.2854765 74.079,88.4074765 C74.079,87.5274765 73.4,86.8154765 72.563,86.8154765 L1.515,86.8154765 C0.679,86.8154765 3.12638804e-13,87.5274765 3.12638804e-13,88.4074765 C3.12638804e-13,89.2854765 0.679,89.9994765 1.515,89.9994765 Z" id="Shape"></path>
                    <path d="M11.865,34.9994765 C12.176,34.9994765 12.49,34.8994765 12.759,34.6914765 L47.592,7.86247653 L45.527,22.3934765 C45.404,23.2634765 45.976,24.0724765 46.802,24.2024765 C46.877,24.2144765 46.953,24.2204765 47.029,24.2204765 C47.766,24.2204765 48.414,23.6524765 48.525,22.8634765 L50.989,5.50947653 C51.086,4.83547653 50.925,4.16147653 50.537,3.61147653 C50.15,3.06247653 49.583,2.70447653 48.941,2.60447653 L32.42,0.0174765277 C31.596,-0.111523472 30.822,0.487476528 30.698,1.35647653 C30.574,2.22647653 31.144,3.03647653 31.973,3.16547653 L45.759,5.32547653 L10.966,32.1254765 C10.292,32.6454765 10.147,33.6414765 10.642,34.3504765 C10.938,34.7744765 11.399,34.9994765 11.865,34.9994765 Z" id="Shape"></path>
                    <path d="M58.475,79.8634765 L65.339,79.8634765 C68.2,79.8634765 70.528,77.4174765 70.528,74.4134765 L70.528,30.3904765 C70.528,27.3854765 68.2,24.9404765 65.339,24.9404765 L58.475,24.9404765 C55.613,24.9404765 53.285,27.3844765 53.285,30.3904765 L53.285,74.4134765 C53.284,77.4174765 55.612,79.8634765 58.475,79.8634765 Z M56.315,30.3904765 C56.315,29.1404765 57.285,28.1234765 58.474,28.1234765 L65.339,28.1234765 C66.528,28.1234765 67.497,29.1404765 67.497,30.3904765 L67.497,74.4134765 C67.497,75.6614765 66.528,76.6794765 65.339,76.6794765 L58.475,76.6794765 C57.286,76.6794765 56.316,75.6614765 56.316,74.4134765 L56.316,30.3904765 L56.315,30.3904765 Z" id="Shape"></path>
                    <path d="M40.471,39.8674765 L33.608,39.8674765 C30.748,39.8674765 28.42,42.3124765 28.42,45.3174765 L28.42,74.4134765 C28.42,77.4174765 30.748,79.8634765 33.608,79.8634765 L40.471,79.8634765 C43.331,79.8634765 45.659,77.4174765 45.659,74.4134765 L45.659,45.3174765 C45.659,42.3124765 43.331,39.8674765 40.471,39.8674765 Z M42.628,74.4134765 C42.628,75.6614765 41.661,76.6794765 40.471,76.6794765 L33.608,76.6794765 C32.418,76.6794765 31.451,75.6614765 31.451,74.4134765 L31.451,45.3174765 C31.451,44.0674765 32.418,43.0504765 33.608,43.0504765 L40.471,43.0504765 C41.661,43.0504765 42.628,44.0674765 42.628,45.3174765 L42.628,74.4134765 Z" id="Shape"></path>
                    <path d="M8.741,79.8634765 L15.603,79.8634765 C18.465,79.8634765 20.793,77.4174765 20.793,74.4134765 L20.793,60.2414765 C20.793,57.2354765 18.465,54.7914765 15.603,54.7914765 L8.741,54.7914765 C5.88,54.7914765 3.552,57.2354765 3.552,60.2414765 L3.552,74.4134765 C3.552,77.4174765 5.88,79.8634765 8.741,79.8634765 Z M6.581,60.2414765 C6.581,58.9914765 7.55,57.9744765 8.741,57.9744765 L15.603,57.9744765 C16.794,57.9744765 17.762,58.9914765 17.762,60.2414765 L17.762,74.4134765 C17.762,75.6614765 16.794,76.6794765 15.603,76.6794765 L8.741,76.6794765 C7.55,76.6794765 6.581,75.6614765 6.581,74.4134765 L6.581,60.2414765 L6.581,60.2414765 Z" id="Shape"></path>
                </g>
            </g>
        </g>
    </g>
</svg>