<?xml version="1.0" encoding="UTF-8"?>
<svg width="90px" height="90px" viewBox="0 0 90 90" version="1.1" xmlns="http://www.w3.org/2000/svg" xmlns:xlink="http://www.w3.org/1999/xlink">
    <!-- Generator: Sketch 53.2 (72643) - https://sketchapp.com -->
    <title>111</title>
    <desc>Created with Sketch.</desc>
    <g id="Page-1" stroke="none" stroke-width="1" fill="none" fill-rule="evenodd">
        <g id="170-web-icons-webperts" transform="translate(-852.000000, -1044.000000)" fill="#FFFFFF" fill-rule="nonzero">
            <path d="M942,1088.31052 C942,1082.56919 938.847,1079.6585 932.629,1079.6585 L919.187,1079.6585 C918.237,1079.6585 917.535,1079.39135 917.208,1078.90707 C916.858,1078.38877 916.88,1077.53727 917.267,1076.57171 C920.432,1068.68714 923.256,1057.78783 918.732,1050.64269 C916.183,1046.61835 911.663,1044.38506 905.294,1044.00684 C903.324,1043.88177 901.679,1045.4887 901.679,1047.47185 L901.679,1054.70804 C901.679,1063.62321 898.747,1067.42841 893.891,1073.73007 C890.82,1077.71538 887.102,1082.54818 883.084,1090.02351 C881.535,1087.02677 878.413,1084.96758 874.814,1084.96758 L861.31,1084.96758 C856.177,1084.96758 852,1089.147 852,1094.28198 L852,1124.6856 C852,1129.82058 856.177,1134 861.31,1134 L874.814,1134 C878.054,1134 880.911,1132.33103 882.579,1129.81057 C892.558,1132.58718 905.678,1134 921.599,1134 C928.486,1134 932.598,1131.21639 932.598,1126.55468 C932.598,1125.7242 932.597,1124.04723 931.768,1122.57638 C934.903,1121.54478 936.698,1118.77417 936.698,1114.73383 C936.698,1113.03985 936.367,1111.18378 935.254,1109.73494 C938.143,1108.54925 939.833,1105.7086 939.833,1101.75131 C939.833,1099.35392 939.186,1097.43981 937.973,1096.08903 C940.522,1094.77126 942,1092.03167 942,1088.31052 Z M880.938,1094.58015 L880.936,1124.73263 C880.91,1128.09057 878.174,1130.81215 874.813,1130.81215 L861.31,1130.81215 C857.931,1130.81215 855.184,1128.06156 855.184,1124.6846 L855.184,1094.28098 C855.184,1090.90102 857.931,1088.15143 861.31,1088.15143 L874.814,1088.15143 C878.192,1088.15143 880.939,1090.90102 880.939,1094.28098 L880.939,1094.58015 L880.938,1094.58015 Z M934.077,1093.77469 L931.905,1093.77469 C931.026,1093.77469 930.313,1094.4881 930.313,1095.36861 C930.313,1096.24712 931.026,1096.96153 931.905,1096.96153 C935.229,1096.96153 936.647,1098.39336 936.647,1101.74931 C936.647,1104.21874 935.825,1107.16545 931.905,1107.16545 L928.772,1107.16545 C927.893,1107.16545 927.18,1107.87886 927.18,1108.75837 C927.18,1109.63788 927.893,1110.35229 928.772,1110.35229 C932.227,1110.35229 933.512,1111.53798 933.512,1114.73283 C933.512,1118.16682 931.961,1119.83679 928.772,1119.83679 L925.938,1119.83679 C925.059,1119.83679 924.346,1120.5492 924.346,1121.42971 C924.346,1122.30822 925.059,1123.02264 925.938,1123.02264 C929.413,1123.02264 929.413,1124.65859 929.413,1126.55368 C929.413,1130.39891 923.947,1130.81315 921.598,1130.81315 C906.334,1130.81315 893.735,1129.5094 884.119,1126.93591 L884.119,1124.73663 C884.12,1124.71962 884.123,1124.70261 884.123,1124.6856 L884.123,1094.95037 C888.694,1085.689 892.969,1080.14378 896.411,1075.67419 C901.318,1069.3085 904.862,1064.70784 904.862,1054.70704 L904.862,1047.47085 C904.862,1047.31576 904.967,1047.18568 905.104,1047.18568 L905.105,1047.18568 C910.392,1047.49886 914.072,1049.23687 916.043,1052.34667 C920.045,1058.66834 916.677,1069.49361 914.313,1075.38403 C913.513,1077.37518 913.606,1079.25927 914.572,1080.6891 C915.51,1082.07891 917.148,1082.84235 919.188,1082.84235 L932.63,1082.84235 C937.782,1082.84235 938.818,1084.93356 938.818,1088.30952 C938.816,1090.80296 937.995,1093.77469 934.077,1093.77469 Z" id="111"></path>
        </g>
    </g>
</svg>