<?xml version="1.0" encoding="UTF-8"?>
<svg width="128px" height="128px" viewBox="0 0 128 128" version="1.1" xmlns="http://www.w3.org/2000/svg" xmlns:xlink="http://www.w3.org/1999/xlink">
    <!-- Generator: Sketch 53.2 (72643) - https://sketchapp.com -->
    <title>Group</title>
    <desc>Created with Sketch.</desc>
    <g id="Page-1" stroke="none" stroke-width="1" fill="none" fill-rule="evenodd">
        <g id="De-Moji" transform="translate(-757.000000, -616.000000)" fill="#FFFFFF" fill-rule="nonzero">
            <g id="Stacked-Group-3" transform="translate(757.000000, 616.000000)">
                <g id="Crying">
                    <g id="Group">
                        <path d="M64,3 C97.6893697,3 125,30.3106303 125,64 C125,97.6893697 97.6893697,125 64,125 C30.3106303,125 3,97.6893697 3,64 C3.03307483,30.3243398 30.3243398,3.03307483 64,3 L64,3 Z M64,6.21724894e-15 C28.653776,-2.164332e-15 4.32866401e-15,28.653776 0,64 C-4.32866401e-15,99.346224 28.653776,128 64,128 C99.346224,128 128,99.346224 128,64 C128,47.0261447 121.257162,30.7474942 109.254834,18.745166 C97.2525058,6.74283778 80.9738553,1.03934888e-15 64,6.21724894e-15 Z" id="Shape"></path>
                        <path d="M85.57,49.28 C84.7415729,49.28 84.07,49.9515729 84.07,50.78 L84.07,59.78 C84.07,60.6084271 84.7415729,61.28 85.57,61.28 C86.3984271,61.28 87.07,60.6084271 87.07,59.78 L87.07,50.78 C87.07,49.9515729 86.3984271,49.28 85.57,49.28 Z" id="Path"></path>
                        <path d="M42.43,49.28 C41.6015729,49.28 40.93,49.9515729 40.93,50.78 L40.93,59.78 C40.93,60.6084271 41.6015729,61.28 42.43,61.28 C43.2584271,61.28 43.93,60.6084271 43.93,59.78 L43.93,50.78 C43.93,49.9515729 43.2584271,49.28 42.43,49.28 Z" id="Path"></path>
                        <path d="M87.11,92.08 C79.5062426,86.808626 70.3430596,84.2640805 61.11,84.86 C57.8858024,85.1024732 54.7027247,85.7337165 51.63,86.74 C51.3402628,83.9642971 50.4090769,81.2939845 48.91,78.94 C47,76 44.67,74.33 42.43,74.33 C40.19,74.33 37.84,76 36,78.94 C33.8,82.36 32,88.05 34.21,92.84 C35.59,95.84 38.68,98.84 42.47,98.84 C46.26,98.84 49.36,95.84 50.74,92.84 C51.1606066,91.9112264 51.4500439,90.9284857 51.6,89.92 C54.7445512,88.7910938 58.0279222,88.0947231 61.36,87.85 C69.9163891,87.2970668 78.407775,89.6587225 85.45,94.55 C86.1311273,95.0108982 87.0558373,94.8419608 87.53,94.17 C87.7561696,93.8385765 87.8391128,93.4299431 87.7600611,93.0365667 C87.6810094,92.6431902 87.4466447,92.298322 87.11,92.08 L87.11,92.08 Z M48,91.59 C47.32,93.08 45.29,95.89 42.46,95.89 C39.63,95.89 37.61,93.08 36.93,91.59 C35.35,88.14 36.59,83.59 38.51,80.59 C39.78,78.59 41.33,77.36 42.51,77.36 C43.69,77.36 45.2,78.63 46.51,80.59 C48.31,83.56 49.55,88.14 48,91.59 Z" id="Shape"></path>
                    </g>
                </g>
            </g>
        </g>
    </g>
</svg>