<?xml version="1.0" encoding="UTF-8"?>
<svg width="90px" height="84px" viewBox="0 0 90 84" version="1.1" xmlns="http://www.w3.org/2000/svg" xmlns:xlink="http://www.w3.org/1999/xlink">
    <!-- Generator: Sketch 53.2 (72643) - https://sketchapp.com -->
    <title>Group</title>
    <desc>Created with Sketch.</desc>
    <g id="Page-1" stroke="none" stroke-width="1" fill="none" fill-rule="evenodd">
        <g id="170-web-icons-webperts" transform="translate(-701.000000, -420.000000)" fill="#FFFFFF" fill-rule="nonzero">
            <g id="148" transform="translate(701.000000, 420.000000)">
                <g id="Group" transform="translate(-0.000228, 0.813793)">
                    <path d="M82.0082278,48.1532067 C81.3712278,47.8812067 80.6662278,47.8732067 80.0272278,48.1292067 L63.7572278,54.6232067 C62.9302278,54.9542067 62.5272278,55.8922067 62.8572278,56.7172067 C63.1872278,57.5462067 64.1262278,57.9482067 64.9522278,57.6182067 L78.7102278,52.1262067 C76.0642278,60.6962067 70.7602278,68.0142067 63.5262278,72.9602067 C55.4392278,78.4912067 45.9092278,80.4022067 36.6922278,78.3372067 C23.4522278,75.3752067 13.2352278,64.5672067 10.2892278,50.5782067 C10.1042278,49.7072067 9.2762278,49.1152067 8.3982278,49.2632067 C7.5202278,49.4112067 6.9242278,50.2442067 7.1052278,51.1172067 C10.2762278,66.4032067 21.4642278,78.2372067 35.9882278,81.4862067 C38.6472278,82.0802067 41.3282278,82.3742067 43.9972278,82.3742067 C51.4672278,82.3742067 58.8392278,80.0722067 65.3472278,75.6222067 C72.9982278,70.3922067 78.6592278,62.7252067 81.5852278,53.7462067 L86.8912278,67.0412067 C87.2212278,67.8682067 88.1592278,68.2702067 88.9862278,67.9402067 C89.8132278,67.6092067 90.2162278,66.6712067 89.8862278,65.8452067 L83.3942278,49.5732067 C83.1362278,48.9302067 82.6442278,48.4262067 82.0082278,48.1532067 Z" id="Shape"></path>
                    <path d="M6.6092278,32.7952067 C6.8662278,33.4372067 7.3572278,33.9412067 7.9942278,34.2142067 C8.3232278,34.3552067 8.6712278,34.4262067 9.0182278,34.4262067 C9.3412278,34.4262067 9.6642278,34.3642067 9.9762278,34.2402067 L26.2442278,27.7462067 C27.0722278,27.4152067 27.4742278,26.4772067 27.1442278,25.6502067 C26.8142278,24.8232067 25.8742278,24.4212067 25.0482278,24.7512067 L11.2932278,30.2422067 C13.9402278,21.6762067 19.2442278,14.3612067 26.4782278,9.41420674 C34.5652278,3.88320674 44.0942278,1.97120674 53.3112278,4.03620674 C66.5492278,6.99720674 76.7672278,17.8042067 79.7122278,31.7892067 C79.8962278,32.6602067 80.7242278,33.2532067 81.6022278,33.1052067 C82.4802278,32.9572067 83.0772278,32.1242067 82.8952278,31.2512067 C79.7272278,15.9682067 68.5382278,4.13720674 54.0152278,0.888206737 C43.9152278,-1.37079326 33.4912278,0.713206737 24.6582278,6.75220674 C17.0072278,11.9842067 11.3462278,19.6492067 8.4202278,28.6262067 L3.1102278,15.3302067 C2.7802278,14.5032067 1.8412278,14.1002067 1.0152278,14.4302067 C0.188227802,14.7612067 -0.214772198,15.6992067 0.115227802,16.5262067 L6.6092278,32.7952067 Z" id="Shape"></path>
                </g>
            </g>
        </g>
    </g>
</svg>