<?xml version="1.0" encoding="UTF-8"?>
<svg width="90px" height="77px" viewBox="0 0 90 77" version="1.1" xmlns="http://www.w3.org/2000/svg" xmlns:xlink="http://www.w3.org/1999/xlink">
    <!-- Generator: Sketch 53.2 (72643) - https://sketchapp.com -->
    <title>79</title>
    <desc>Created with Sketch.</desc>
    <g id="Page-1" stroke="none" stroke-width="1" fill="none" fill-rule="evenodd">
        <g id="170-web-icons-webperts" transform="translate(-1613.000000, -263.000000)" fill="#FFFFFF" fill-rule="nonzero">
            <path d="M1616.93203,300.027629 L1635.76369,310.785307 L1641.70558,314.181573 L1641.70558,333.286449 C1641.70558,337.968439 1643.59855,339.366137 1644.72553,339.783047 C1645.04352,339.902021 1645.45951,340 1645.96151,340 C1647.23548,340 1649.06245,339.366137 1651.24841,336.816687 L1661.14123,325.284177 L1676.86195,334.264238 C1677.82093,334.81212 1678.85492,335.09106 1679.8659,335.09106 C1680.54789,335.09106 1681.21687,334.964087 1681.84486,334.708142 C1683.40583,334.073279 1684.59381,332.688578 1685.1038,330.907963 L1695.38862,294.914733 L1702.69349,269.35625 C1703.53447,266.409886 1702.45449,264.81623 1701.73551,264.128378 C1701.01552,263.440527 1699.37755,262.430745 1696.4686,263.400535 L1648.23246,279.477065 L1617.96801,289.563888 C1613.94208,290.906598 1613.13909,293.142115 1613.0191,294.356853 C1612.8991,295.571591 1613.24709,297.923083 1616.93203,300.027629 Z M1648.83145,334.745134 C1647.14248,336.718708 1646.0955,336.902669 1645.83051,336.800691 C1645.56851,336.702712 1644.88852,335.883889 1644.88852,333.287449 L1644.88852,315.999181 L1658.32628,323.676524 L1648.83145,334.745134 Z M1699.55454,268.748381 L1692.32567,294.041921 L1682.04186,330.037151 C1681.79986,330.880969 1681.30387,331.494836 1680.64488,331.762778 C1679.9879,332.03072 1679.20491,331.93974 1678.43992,331.502834 L1645.30452,312.569921 L1699.55454,268.748381 Z M1618.97599,292.582236 L1649.23945,282.495413 L1697.29759,266.479871 L1642.33857,310.876287 L1637.34366,308.021903 L1618.513,297.266225 C1616.70903,296.235447 1616.12904,295.24966 1616.18704,294.669785 C1616.24404,294.09191 1617.00702,293.237095 1618.97599,292.582236 Z" id="79"></path>
        </g>
    </g>
</svg>