<?xml version="1.0" encoding="UTF-8"?>
<svg width="90px" height="86px" viewBox="0 0 90 86" version="1.1" xmlns="http://www.w3.org/2000/svg" xmlns:xlink="http://www.w3.org/1999/xlink">
    <!-- Generator: Sketch 53.2 (72643) - https://sketchapp.com -->
    <title>142</title>
    <desc>Created with Sketch.</desc>
    <g id="Page-1" stroke="none" stroke-width="1" fill="none" fill-rule="evenodd">
        <g id="170-web-icons-webperts" transform="translate(-247.000000, -580.000000)" fill="#FFFFFF" fill-rule="nonzero">
            <path d="M320.216,580 C309.587,580 301.019,587.126423 292.733,594.018913 C285.233,600.256792 278.149,606.148289 270.297,606.148289 L257.273,606.148289 C251.608,606.148289 247,610.773737 247,616.462426 L247,625.179191 C247,630.866876 251.608,635.492324 257.273,635.492324 L257.851,635.492324 L257.851,655.685863 C257.851,661.373548 262.46,666 268.125,666 L272.466,666 C278.131,666 282.739,661.373548 282.739,655.685863 L282.739,639.915967 C286.056,642.077589 289.351,644.8135 292.73,647.624713 C301.017,654.515194 309.585,661.643625 320.214,661.643625 C329.627,661.642621 337,643.712108 337,620.821813 C337,597.930514 329.627,580 320.216,580 Z M279.557,655.686867 C279.557,659.61152 276.376,662.804254 272.467,662.804254 L268.126,662.804254 C264.216,662.804254 261.035,659.61152 261.035,655.686867 L261.035,635.492324 L270.297,635.492324 C273.484,635.492324 276.544,636.475244 279.557,638.044503 L279.557,655.686867 Z M294.763,645.162894 C287.159,638.836663 279.296,632.296578 270.297,632.296578 L257.273,632.296578 C253.364,632.296578 250.183,629.103844 250.183,625.179191 L250.183,616.462426 C250.183,612.537773 253.364,609.344035 257.273,609.344035 L270.296,609.344035 C279.295,609.344035 287.157,602.802947 294.762,596.479727 C300.32,591.857291 306.013,587.135459 312.228,584.764001 C306.949,591.567134 303.43,605.008744 303.43,620.821813 C303.43,636.631869 306.948,650.074483 312.226,656.875609 C306.013,654.506158 300.32,649.784326 294.763,645.162894 Z M320.216,658.446875 C313.647,658.446875 306.614,643.328578 306.614,620.821813 C306.614,598.314043 313.646,583.194742 320.216,583.194742 C326.784,583.194742 333.817,598.314043 333.817,620.821813 C333.816,643.328578 326.784,658.446875 320.216,658.446875 Z" id="142"></path>
        </g>
    </g>
</svg>