<?xml version="1.0" encoding="UTF-8"?>
<svg width="90px" height="72px" viewBox="0 0 90 72" version="1.1" xmlns="http://www.w3.org/2000/svg" xmlns:xlink="http://www.w3.org/1999/xlink">
    <!-- Generator: Sketch 53.2 (72643) - https://sketchapp.com -->
    <title>Group 3</title>
    <desc>Created with Sketch.</desc>
    <g id="Page-1" stroke="none" stroke-width="1" fill="none" fill-rule="evenodd">
        <g id="170-web-icons-webperts" transform="translate(-852.000000, -1211.000000)" fill="#FFFFFF" fill-rule="nonzero">
            <g id="102" transform="translate(852.000000, 1211.000000)">
                <g id="Group-3" transform="translate(0.000000, 0.651832)">
                    <path d="M89.534,21.8781679 C88.912,21.2561679 87.904,21.2561679 87.282,21.8781679 L76.063,33.0991679 L64.844,21.8781679 C64.222,21.2561679 63.214,21.2561679 62.592,21.8781679 C61.97,22.4991679 61.97,23.5081679 62.592,24.1291679 L73.812,35.3501679 L62.592,46.5691679 C61.97,47.1901679 61.97,48.1981679 62.592,48.8201679 C62.903,49.1311679 63.311,49.2871679 63.718,49.2871679 C64.124,49.2871679 64.532,49.1311679 64.844,48.8201679 L76.064,37.6011679 L87.283,48.8201679 C87.594,49.1311679 88.002,49.2871679 88.409,49.2871679 C88.816,49.2871679 89.223,49.1311679 89.535,48.8201679 C90.156,48.1981679 90.156,47.1901679 89.535,46.5691679 L78.315,35.3501679 L89.535,24.1291679 C90.155,23.5081679 90.155,22.4991679 89.534,21.8781679 Z" id="Shape"></path>
                    <path d="M44.646,2.18916786 L26.457,17.7811679 C24.378,19.5631679 20.31,21.0691679 17.571,21.0691679 L10.991,21.0691679 C4.931,21.0691679 4.26325641e-14,25.9991679 4.26325641e-14,32.0601679 L4.26325641e-14,38.6371679 C4.26325641e-14,44.6981679 4.931,49.6301679 10.991,49.6301679 L17.571,49.6301679 C20.307,49.6301679 24.378,51.1351679 26.457,52.9151679 L44.646,68.5081679 C46.633,70.2111679 48.296,70.6961679 49.546,70.6961679 C50.332,70.6961679 50.952,70.5061679 51.388,70.3051679 C52.517,69.7851679 54.41,68.2791679 54.41,64.0171679 L54.41,6.67916786 C54.41,2.41916786 52.516,0.911167862 51.388,0.393167862 C50.259,-0.129832138 47.881,-0.583832138 44.646,2.18916786 Z M51.228,64.0171679 C51.228,65.7801679 50.78,67.0801679 50.059,67.4131679 C49.339,67.7431679 48.057,67.2381679 46.719,66.0921679 L39.051,59.5181679 L28.528,50.4981679 C25.878,48.2271679 21.063,46.4451679 17.571,46.4451679 L10.991,46.4451679 C6.686,46.4451679 3.181,42.9431679 3.181,38.6361679 L3.181,32.0591679 C3.181,27.7531679 6.686,24.2511679 10.991,24.2511679 L17.571,24.2511679 C21.063,24.2511679 25.878,22.4711679 28.528,20.1961679 L46.718,4.60416786 C48.056,3.45716786 49.338,2.95216786 50.058,3.28316786 C50.779,3.61416786 51.227,4.91716786 51.227,6.67816786 L51.227,64.0171679 L51.228,64.0171679 Z" id="Shape"></path>
                </g>
            </g>
        </g>
    </g>
</svg>