<?xml version="1.0" encoding="UTF-8"?>
<svg width="90px" height="72px" viewBox="0 0 90 72" version="1.1" xmlns="http://www.w3.org/2000/svg" xmlns:xlink="http://www.w3.org/1999/xlink">
    <!-- Generator: Sketch 53.2 (72643) - https://sketchapp.com -->
    <title>Group 2</title>
    <desc>Created with Sketch.</desc>
    <g id="Page-1" stroke="none" stroke-width="1" fill="none" fill-rule="evenodd">
        <g id="170-web-icons-webperts" transform="translate(-395.000000, -1211.000000)" fill="#FFFFFF" fill-rule="nonzero">
            <g id="105" transform="translate(395.000000, 1211.000000)">
                <g id="Group-2" transform="translate(0.000000, 0.652543)">
                    <path d="M10.991,49.6294571 L17.571,49.6294571 C20.309,49.6294571 24.378,51.1344571 26.457,52.9144571 L44.647,68.5074571 C46.633,70.2104571 48.297,70.6954571 49.547,70.6954571 C50.332,70.6954571 50.952,70.5054571 51.389,70.3044571 C52.518,69.7834571 54.411,68.2784571 54.411,64.0164571 L54.411,6.67845709 C54.411,2.41845709 52.517,0.910457093 51.388,0.392457093 C50.258,-0.129542907 47.881,-0.583542907 44.647,2.18845709 L26.457,17.7804571 C24.378,19.5624571 20.31,21.0684571 17.571,21.0684571 L10.991,21.0684571 C4.93,21.0684571 -2.13162821e-14,25.9984571 -2.13162821e-14,32.0594571 L-2.13162821e-14,38.6364571 C-2.13162821e-14,44.6974571 4.93,49.6294571 10.991,49.6294571 Z M3.183,32.0594571 C3.183,27.7534571 6.687,24.2514571 10.992,24.2514571 L17.572,24.2514571 C21.065,24.2514571 25.878,22.4714571 28.53,20.1964571 L46.72,4.60445709 C48.059,3.45745709 49.34,2.95245709 50.06,3.28345709 C50.782,3.61445709 51.23,4.91745709 51.23,6.67845709 L51.23,64.0164571 C51.23,65.7794571 50.782,67.0794571 50.06,67.4124571 C49.34,67.7424571 48.059,67.2374571 46.72,66.0914571 L39.052,59.5174571 L28.529,50.4974571 C25.877,48.2264571 21.064,46.4444571 17.571,46.4444571 L10.991,46.4444571 C6.686,46.4444571 3.182,42.9424571 3.182,38.6354571 L3.182,32.0594571 L3.183,32.0594571 Z" id="Shape"></path>
                    <path d="M64.321,48.8474571 C63.57,49.3034571 63.227,50.2454571 63.604,51.0404571 C63.98,51.8324571 64.934,52.1764571 65.693,51.7324571 C71.465,48.3644571 75.117,42.0944571 75.117,35.3474571 C75.117,28.6014571 71.468,22.3324571 65.698,18.9624571 C64.938,18.5194571 63.984,18.8614571 63.607,19.6564571 C63.231,20.4504571 63.573,21.3934571 64.325,21.8484571 C68.993,24.6844571 71.933,29.8234571 71.933,35.3464571 C71.933,40.8694571 68.991,46.0114571 64.321,48.8474571 Z" id="Shape"></path>
                    <path d="M65.509,2.81745709 C64.663,2.57645709 63.804,3.10845709 63.604,3.96445709 C63.402,4.82045709 63.933,5.67245709 64.777,5.91945709 C77.832,9.71245709 86.817,21.5964571 86.817,35.3484571 C86.817,49.0994571 77.833,60.9834571 64.777,64.7774571 C63.933,65.0224571 63.402,65.8754571 63.605,66.7304571 C63.807,67.5864571 64.665,68.1194571 65.511,67.8774571 C80.008,63.7394571 90,50.5824571 90,35.3484571 C90,20.1124571 80.008,6.95545709 65.509,2.81745709 Z" id="Shape"></path>
                </g>
            </g>
        </g>
    </g>
</svg>