<?xml version="1.0" encoding="UTF-8"?>
<svg width="90px" height="86px" viewBox="0 0 90 86" version="1.1" xmlns="http://www.w3.org/2000/svg" xmlns:xlink="http://www.w3.org/1999/xlink">
    <!-- Generator: Sketch 53.2 (72643) - https://sketchapp.com -->
    <title>131</title>
    <desc>Created with Sketch.</desc>
    <g id="Page-1" stroke="none" stroke-width="1" fill="none" fill-rule="evenodd">
        <g id="170-web-icons-webperts" transform="translate(-548.000000, -736.000000)" fill="#FFFFFF" fill-rule="nonzero">
            <path d="M632.462454,764.908554 L610.649872,761.740028 C609.652891,761.594096 608.293917,760.606555 607.848926,759.705974 L598.092113,739.948164 C596.396145,736.512762 594.174188,736 593.00021,736 C591.826233,736 589.604275,736.512762 587.908308,739.947164 L578.151495,759.705974 C577.707503,760.606555 576.346529,761.595095 575.349548,761.740028 L553.536966,764.908554 C549.744039,765.459298 548.568062,767.413389 548.207069,768.52887 C547.845075,769.644351 547.645079,771.914296 550.390027,774.587053 L566.175724,789.969898 C566.89571,790.669572 567.414701,792.268828 567.244704,793.260367 L563.519775,814.978266 C563.018785,817.891911 563.81277,819.57113 564.567755,820.464714 C566.087726,822.266876 568.838673,822.49377 571.755617,820.959484 L591.270243,810.706253 C592.110227,810.263459 593.890193,810.263459 594.732177,810.706253 L614.244803,820.959484 C615.558778,821.649163 616.808754,822 617.959732,822 C619.363705,822 620.597682,821.455253 621.432666,820.464714 C622.187651,819.57013 622.981636,817.89291 622.481646,814.978266 L618.755717,793.259368 C618.58572,792.268828 619.10571,790.669572 619.824696,789.968898 L635.609394,774.587053 C638.353341,771.914296 638.155345,769.643352 637.793352,768.52887 C637.430359,767.413389 636.255382,765.459298 632.462454,764.908554 Z M633.387437,772.308113 L617.602739,787.690958 C616.121767,789.132287 615.267784,791.758066 615.617777,793.798117 L619.344706,815.515016 C619.570701,816.830404 619.444704,817.886913 618.999712,818.413668 C618.914714,818.514621 618.657719,818.81848 617.959732,818.81848 C617.52674,818.81848 616.788755,818.702534 615.726775,818.142794 L596.215149,807.887564 C595.333166,807.425779 594.192187,807.169898 593.00121,807.169898 C591.810233,807.169898 590.669255,807.425779 589.788272,807.887564 L570.277646,818.142794 C569.214666,818.702534 568.47568,818.81848 568.044688,818.81848 C567.345702,818.81848 567.087707,818.513622 567.003708,818.413668 C566.559717,817.886913 566.433719,816.830404 566.659715,815.514017 L570.384644,793.798117 C570.734637,791.758066 569.880653,789.132287 568.399682,787.690958 L552.612984,772.308113 C551.525005,771.249605 551.010015,770.205091 551.23501,769.511413 C551.461006,768.819735 552.491986,768.276987 553.994958,768.058089 L575.80754,764.888563 C577.8555,764.590702 580.091458,762.968457 581.00644,761.115318 L590.762253,741.356509 C591.43424,739.995142 592.271224,739.18152 592.99921,739.18152 C593.727196,739.18152 594.56418,739.994142 595.236167,741.356509 L604.991981,761.115318 C605.906963,762.968457 608.14192,764.591702 610.188881,764.888563 L632.003463,768.058089 C633.506434,768.276987 634.537415,768.819735 634.76341,769.511413 C634.989406,770.203092 634.475416,771.249605 633.387437,772.308113 Z" id="131"></path>
        </g>
    </g>
</svg>