<?xml version="1.0" encoding="UTF-8"?>
<svg width="86px" height="90px" viewBox="0 0 86 90" version="1.1" xmlns="http://www.w3.org/2000/svg" xmlns:xlink="http://www.w3.org/1999/xlink">
    <!-- Generator: Sketch 53.2 (72643) - https://sketchapp.com -->
    <title>Group 2</title>
    <desc>Created with Sketch.</desc>
    <g id="Page-1" stroke="none" stroke-width="1" fill="none" fill-rule="evenodd">
        <g id="170-web-icons-webperts" transform="translate(-2491.000000, -734.000000)" fill="#FFFFFF" fill-rule="nonzero">
            <g id="46" transform="translate(2491.000000, 734.000000)">
                <g id="Group-2" transform="translate(0.553000, 0.000000)">
                    <path d="M76.354,42.445 C76.354,23.748 61.142,8.539 42.447,8.539 C23.75,8.539 8.54,23.748 8.54,42.445 C8.54,53.621 13.978,63.55 22.345,69.731 L10.481,87.524 C9.995,88.255 10.192,89.245 10.923,89.732 C11.195,89.913 11.502,90 11.805,90 C12.319,90 12.824,89.752 13.129,89.29 L24.989,71.503 C30.092,74.58 36.066,76.354 42.447,76.354 C48.828,76.354 54.801,74.581 59.904,71.503 L71.762,89.29 C72.07,89.752 72.575,90 73.088,90 C73.392,90 73.698,89.913 73.97,89.732 C74.701,89.245 74.899,88.255 74.411,87.524 L62.55,69.731 C70.915,63.551 76.354,53.621 76.354,42.445 Z M42.447,73.17 C25.506,73.17 11.722,59.387 11.722,42.445 C11.722,25.505 25.505,11.721 42.447,11.721 C59.389,11.721 73.171,25.504 73.171,42.445 C73.171,59.387 59.388,73.17 42.447,73.17 Z" id="Shape"></path>
                    <path d="M67.981,-2.84217094e-14 C63.463,-2.84217094e-14 59.217,1.76 56.021,4.953 C55.4,5.575 55.4,6.583 56.021,7.204 C56.641,7.825 57.649,7.826 58.273,7.204 C60.866,4.611 64.315,3.183 67.981,3.183 C75.551,3.183 81.71,9.342 81.71,16.913 C81.71,20.579 80.282,24.027 77.688,26.621 C77.067,27.243 77.069,28.25 77.688,28.872 C78,29.182 78.409,29.339 78.815,29.339 C79.222,29.339 79.629,29.182 79.94,28.871 C83.135,25.676 84.895,21.429 84.895,16.913 C84.894,7.587 77.307,-2.84217094e-14 67.981,-2.84217094e-14 Z" id="Shape"></path>
                    <path d="M3.184,16.913 C3.184,9.342 9.342,3.183 16.913,3.183 C20.579,3.183 24.027,4.612 26.621,7.204 C27.243,7.825 28.249,7.826 28.871,7.204 C29.492,6.583 29.492,5.575 28.871,4.953 C25.676,1.76 21.428,2.30926389e-14 16.913,2.30926389e-14 C7.587,2.30926389e-14 1.97175609e-13,7.587 1.97175609e-13,16.913 C1.97175609e-13,21.431 1.76,25.678 4.953,28.871 C5.264,29.182 5.671,29.339 6.08,29.339 C6.486,29.339 6.893,29.182 7.205,28.871 C7.826,28.25 7.826,27.242 7.205,26.621 C4.612,24.028 3.184,20.58 3.184,16.913 Z" id="Shape"></path>
                    <path d="M44.302,42.308 C44.186,42.144 44.036,41.682 44.036,41.482 L44.038,22.077 C44.038,21.198 43.324,20.485 42.446,20.485 C41.566,20.485 40.854,21.198 40.854,22.077 L40.854,41.482 C40.854,42.349 41.207,43.449 41.711,44.157 L51.362,57.671 C51.673,58.107 52.163,58.338 52.658,58.338 C52.978,58.338 53.304,58.242 53.584,58.042 C54.298,57.53 54.464,56.537 53.953,55.821 L44.302,42.308 Z" id="Shape"></path>
                </g>
            </g>
        </g>
    </g>
</svg>