<?xml version="1.0" encoding="UTF-8"?>
<svg width="178px" height="128px" viewBox="0 0 178 128" version="1.1" xmlns="http://www.w3.org/2000/svg" xmlns:xlink="http://www.w3.org/1999/xlink">
    <!-- Generator: Sketch 53.2 (72643) - https://sketchapp.com -->
    <title>Cool</title>
    <desc>Created with Sketch.</desc>
    <g id="Page-1" stroke="none" stroke-width="1" fill="none" fill-rule="evenodd">
        <g id="De-Moji" transform="translate(-919.000000, -616.000000)">
            <g id="Stacked-Group-3" transform="translate(757.000000, 616.000000)">
                <g id="Cool" transform="translate(162.000000, 0.000000)">
                    <path d="M64,3 C97.6893697,3 125,30.3106303 125,64 C125,97.6893697 97.6893697,125 64,125 C30.3106303,125 3,97.6893697 3,64 C3.03307483,30.3243398 30.3243398,3.03307483 64,3 L64,3 Z M64,6.21724894e-15 C28.653776,-2.164332e-15 4.32866401e-15,28.653776 0,64 C-4.32866401e-15,99.346224 28.653776,128 64,128 C99.346224,128 128,99.346224 128,64 C128,47.0261447 121.257162,30.7474942 109.254834,18.745166 C97.2525058,6.74283778 80.9738553,1.03934888e-15 64,6.21724894e-15 Z" id="Shape" fill="#FFFFFF" fill-rule="nonzero"></path>
                    <rect id="Rectangle" fill="#E3E3E3" x="131.728935" y="0" width="4" height="86" rx="2"></rect>
                    <path d="M88.35,45.22 C83.5480849,45.2226412 79.4645839,48.7246041 78.73,53.47 L49.27,53.47 C48.4864596,48.4376209 43.9616647,44.8561208 38.8838333,45.2490622 C33.806002,45.6420036 29.8860756,49.8769877 29.8860756,54.97 C29.8860756,60.0630123 33.806002,64.2979964 38.8838333,64.6909378 C43.9616647,65.0838792 48.4864596,61.5023791 49.27,56.47 L49.39,56.47 L78.61,56.47 L78.73,56.47 C79.5182817,61.5974971 84.1871758,65.2073171 89.3479861,64.6794427 C94.5087965,64.1515683 98.3501915,59.6712717 98.0840762,54.4903647 C97.8179608,49.3094577 93.5377356,45.2463252 88.35,45.25 L88.35,45.22 Z" id="Path" fill="#FFFFFF" fill-rule="nonzero"></path>
                    <path d="M62.91,98.06 C58.0779741,98.0709042 53.290801,97.1331754 48.82,95.3 C40.0907292,91.5902994 32.9316558,84.9476414 28.58,76.52 C28.3317004,76.0448368 28.3557587,75.4733016 28.6431123,75.0206862 C28.930466,74.5680708 29.4374591,74.3031383 29.9731123,74.3256862 C30.5087656,74.3482341 30.9917004,74.6548368 31.24,75.13 C35.2743842,82.9390968 41.9099221,89.0935936 50,92.53 C69.08,100.34 86.76,87.68 87.5,87.14 C87.9310861,86.8012814 88.512624,86.7247284 89.0166822,86.9403456 C89.5207405,87.1559629 89.8670138,87.6293986 89.9197817,88.1750919 C89.9725497,88.7207851 89.7234054,89.2517971 89.27,89.56 C88.62,90 77.38,98.06 62.91,98.06 Z" id="Path" fill="#FFFFFF" fill-rule="nonzero"></path>
                    <polygon id="Path-2" fill="#FFFEF0" points="135 5 178 23.2322146 135 40"></polygon>
                    <text id="TOP" font-family="ProximaNova-Regular, Proxima Nova" font-size="10" font-weight="normal" fill="#555555">
                        <tspan x="139" y="26">TOP</tspan>
                    </text>
                </g>
            </g>
        </g>
    </g>
</svg>